PathFileType	4	(x/y/z)	TRC_MarkerData\Calibration\Standing_Cal_SL_Passive0001.trc
DataRate	CameraRate	NumFrames	NumMarkers	Units	OrigDataRate	OrigDataStartFrame	OrigNumFrames
240	240	10	50	mm	240	1201	2400
Frame#	Time	R_AC			L_AC			HEAD			STERN			C7			L_IC			R_IC			L_ASIS			R_ASIS			L_GT			R_GT			L_PSIS			R_PSIS			SACRAL			L_LAT_KNEE			L_MED_KNEE			R_LAT_KNEE			R_MED_KNEE			L_LAT_ANK			L_MED_ANK			R_LAT_ANK			R_MED_ANK			L_THIGH_PROX_POST			L_THIGH_PROX_ANT			L_THIGH_DIST_ANT			L_THIGH_DIST_POST			R_THIGH_PROX_POST			R_THIGH_PROX_ANT			R_THIGH_DIST_ANT			R_THIGH_DIST_POST			L_SHANK_PROX_POST			L_SHANK_PROX_ANT			L_SHANK_DIST_ANT			L_SHANK_DIST_POST			R_SHANK_PROX_POST			R_SHANK_PROX_ANT			R_SHANK_DIST_ANT			R_SHANK_DIST_POST			L_HEEL_LAT			L_HEEL_SUP			L_HEEL_MED			R_HEEL_LAT			R_HEEL_SUP			R_HEEL_MED			L_1ST_MET			L_5TH_MET			L_TOE			R_1ST_MET			R_5TH_MET			R_TOE			
		X1	Y1	Z1	X2	Y2	Z2	X3	Y3	Z3	X4	Y4	Z4	X5	Y5	Z5	X6	Y6	Z6	X7	Y7	Z7	X8	Y8	Z8	X9	Y9	Z9	X10	Y10	Z10	X11	Y11	Z11	X12	Y12	Z12	X13	Y13	Z13	X14	Y14	Z14	X15	Y15	Z15	X16	Y16	Z16	X17	Y17	Z17	X18	Y18	Z18	X19	Y19	Z19	X20	Y20	Z20	X21	Y21	Z21	X22	Y22	Z22	X23	Y23	Z23	X24	Y24	Z24	X25	Y25	Z25	X26	Y26	Z26	X27	Y27	Z27	X28	Y28	Z28	X29	Y29	Z29	X30	Y30	Z30	X31	Y31	Z31	X32	Y32	Z32	X33	Y33	Z33	X34	Y34	Z34	X35	Y35	Z35	X36	Y36	Z36	X37	Y37	Z37	X38	Y38	Z38	X39	Y39	Z39	X40	Y40	Z40	X41	Y41	Z41	X42	Y42	Z42	X43	Y43	Z43	X44	Y44	Z44	X45	Y45	Z45	X46	Y46	Z46	X47	Y47	Z47	X48	Y48	Z48	X49	Y49	Z49	X50	Y50	Z50	

1201	5.0021	557.6	1583.2	476.95	562.09	1605.7	175.36	683	1855.9	338.42	685.76	1530.1	331.97	537.62	1599.5	328.73	606.88	1132.6	150.02	620.12	1123	490.11	677.46	1055.7	177.77	682.06	1038.8	450.7	580.4	983.46	125.61	589.73	971.85	498.46	474.09	1076.4	272.56	485.36	1071.8	379.09	463.91	1053.2	327.46	585.19	573.37	125.28	609.2	567.94	259.52	534.27	559.72	497.92	559.29	541.3	373.49	491.22	129.63	105.79	494.63	126.93	184.34	467.99	96.666	484.71	505.94	116.21	391.15	549.7	830.92	131.24	613.58	822.05	118.14	610.32	746.4	123.45	547.66	756.59	136.79	548.05	807.9	503.92	614.53	801.07	512.81	601.08	727.45	508.22	533.73	733.96	497.41	586.82	519.32	127.89	630.56	529.53	138.49	627.27	479.26	140.22	577.59	465.63	128.95	435.78	408.76	488.53	500.39	415.41	516.98	504.32	340.99	513.6	440.49	332.28	487.59	426.7	54.336	105.12	418.17	77.708	142.21	428.31	44.403	171.81	409.13	40.511	452.56	405.63	66.513	416.37	426.53	39.387	387.48	655.58	48.124	186.21	633.42	48.079	82.483	706.36	57.85	160.92	654.95	49.633	428.29	605.73	32.973	530.33	689.97	54.837	485.16
1202	5.0063	557.54	1583.3	476.95	562.03	1605.7	175.35	682.92	1855.9	338.41	685.71	1530.2	331.96	537.57	1599.5	328.72	606.83	1132.6	150.02	620.07	1123	490.11	677.41	1055.7	177.77	682.02	1038.8	450.7	580.36	983.46	125.61	589.69	971.85	498.45	474.04	1076.4	272.56	485.31	1071.8	379.1	463.86	1053.2	327.47	585.17	573.37	125.28	609.18	567.94	259.53	534.25	559.71	497.93	559.27	541.3	373.5	491.21	129.62	105.79	494.63	126.92	184.34	467.98	96.659	484.71	505.93	116.21	391.16	549.66	830.91	131.24	613.54	822.05	118.15	610.29	746.4	123.45	547.63	756.59	136.79	548.02	807.9	503.92	614.5	801.07	512.81	601.06	727.45	508.22	533.7	733.95	497.41	586.8	519.32	127.89	630.54	529.53	138.49	627.25	479.26	140.23	577.57	465.63	128.96	435.76	408.76	488.53	500.37	415.41	516.99	504.3	340.99	513.61	440.47	332.28	487.61	426.7	54.331	105.12	418.17	77.705	142.21	428.31	44.399	171.81	409.13	40.496	452.56	405.63	66.503	416.38	426.52	39.381	387.49	655.58	48.124	186.21	633.42	48.08	82.483	706.36	57.852	160.92	654.95	49.641	428.29	605.72	32.975	530.33	689.96	54.846	485.16
1203	5.0104	557.49	1583.3	476.94	561.98	1605.7	175.34	682.85	1855.9	338.4	685.65	1530.2	331.95	537.51	1599.5	328.71	606.77	1132.6	150.02	620.03	1123	490.11	677.36	1055.7	177.77	681.98	1038.8	450.7	580.31	983.46	125.61	589.64	971.85	498.45	474	1076.4	272.57	485.27	1071.8	379.11	463.82	1053.2	327.48	585.15	573.37	125.29	609.16	567.94	259.53	534.23	559.71	497.93	559.24	541.3	373.5	491.21	129.61	105.79	494.62	126.92	184.34	467.98	96.653	484.72	505.92	116.21	391.16	549.62	830.91	131.25	613.5	822.05	118.15	610.26	746.4	123.46	547.59	756.59	136.8	547.99	807.9	503.92	614.47	801.08	512.82	601.03	727.45	508.22	533.67	733.94	497.41	586.79	519.32	127.9	630.52	529.54	138.5	627.24	479.27	140.23	577.56	465.63	128.96	435.74	408.76	488.54	500.36	415.41	517	504.28	340.99	513.62	440.45	332.27	487.64	426.71	54.326	105.12	418.16	77.702	142.21	428.3	44.395	171.81	409.12	40.48	452.57	405.62	66.492	416.39	426.52	39.375	387.49	655.58	48.124	186.22	633.42	48.081	82.484	706.36	57.854	160.92	654.94	49.65	428.29	605.72	32.976	530.33	689.96	54.857	485.16
1204	5.0146	557.44	1583.3	476.94	561.92	1605.7	175.33	682.77	1855.9	338.39	685.59	1530.2	331.94	537.45	1599.5	328.7	606.7	1132.6	150.02	619.99	1123	490.11	677.31	1055.7	177.77	681.94	1038.8	450.7	580.26	983.45	125.61	589.6	971.85	498.44	473.95	1076.4	272.58	485.22	1071.8	379.11	463.78	1053.1	327.49	585.13	573.37	125.29	609.14	567.94	259.54	534.2	559.71	497.93	559.22	541.29	373.5	491.21	129.61	105.8	494.62	126.91	184.34	467.97	96.645	484.73	505.91	116.21	391.17	549.58	830.91	131.25	613.46	822.05	118.15	610.22	746.4	123.46	547.56	756.58	136.8	547.96	807.9	503.93	614.44	801.08	512.82	601	727.45	508.22	533.64	733.93	497.41	586.77	519.32	127.9	630.5	529.54	138.5	627.22	479.27	140.24	577.54	465.62	128.97	435.72	408.76	488.54	500.34	415.41	517.01	504.26	341	513.63	440.43	332.27	487.67	426.71	54.321	105.12	418.16	77.698	142.21	428.3	44.391	171.81	409.12	40.464	452.57	405.62	66.481	416.39	426.51	39.368	387.49	655.58	48.124	186.22	633.42	48.082	82.484	706.36	57.857	160.93	654.94	49.659	428.29	605.72	32.977	530.33	689.95	54.868	485.16
1205	5.0188	557.39	1583.3	476.94	561.86	1605.7	175.31	682.69	1855.9	338.38	685.53	1530.2	331.93	537.4	1599.5	328.69	606.64	1132.6	150.02	619.95	1123	490.11	677.26	1055.7	177.76	681.89	1038.8	450.7	580.21	983.45	125.61	589.56	971.85	498.44	473.9	1076.4	272.59	485.17	1071.8	379.12	463.73	1053.1	327.5	585.11	573.37	125.3	609.12	567.94	259.54	534.18	559.71	497.93	559.19	541.29	373.51	491.2	129.6	105.8	494.61	126.91	184.34	467.96	96.637	484.74	505.9	116.21	391.17	549.54	830.9	131.26	613.42	822.05	118.16	610.19	746.41	123.46	547.52	756.58	136.81	547.94	807.89	503.93	614.4	801.08	512.82	600.98	727.45	508.22	533.61	733.92	497.41	586.75	519.32	127.91	630.48	529.54	138.51	627.2	479.27	140.24	577.52	465.62	128.98	435.7	408.75	488.55	500.33	415.4	517.02	504.24	341	513.64	440.41	332.26	487.7	426.71	54.316	105.12	418.16	77.694	142.21	428.3	44.387	171.81	409.11	40.448	452.57	405.61	66.47	416.4	426.51	39.36	387.5	655.58	48.125	186.22	633.41	48.083	82.485	706.36	57.86	160.93	654.93	49.668	428.29	605.71	32.979	530.33	689.95	54.88	485.16
1206	5.0229	557.34	1583.3	476.94	561.8	1605.7	175.3	682.61	1855.9	338.37	685.47	1530.2	331.92	537.34	1599.5	328.68	606.58	1132.6	150.02	619.91	1123	490.11	677.2	1055.7	177.76	681.85	1038.8	450.7	580.16	983.45	125.61	589.52	971.85	498.44	473.85	1076.4	272.59	485.13	1071.8	379.13	463.69	1053.1	327.51	585.09	573.37	125.3	609.1	567.94	259.55	534.15	559.71	497.94	559.16	541.29	373.51	491.2	129.59	105.8	494.61	126.9	184.34	467.95	96.629	484.74	505.89	116.21	391.17	549.5	830.9	131.26	613.38	822.05	118.16	610.15	746.41	123.47	547.49	756.57	136.81	547.91	807.89	503.93	614.37	801.08	512.82	600.95	727.45	508.22	533.58	733.91	497.41	586.72	519.32	127.91	630.46	529.55	138.51	627.18	479.27	140.24	577.5	465.62	128.98	435.68	408.75	488.56	500.31	415.4	517.03	504.21	341	513.66	440.39	332.26	487.73	426.71	54.31	105.12	418.16	77.69	142.21	428.29	44.382	171.81	409.11	40.431	452.58	405.6	66.459	416.41	426.5	39.351	387.5	655.58	48.125	186.22	633.41	48.083	82.485	706.36	57.862	160.93	654.93	49.678	428.29	605.71	32.98	530.33	689.94	54.892	485.16
1207	5.0271	557.29	1583.3	476.93	561.74	1605.7	175.29	682.53	1855.9	338.36	685.41	1530.2	331.91	537.29	1599.4	328.67	606.52	1132.6	150.02	619.86	1123	490.11	677.15	1055.7	177.76	681.81	1038.8	450.7	580.11	983.45	125.61	589.48	971.84	498.44	473.81	1076.4	272.6	485.08	1071.8	379.14	463.65	1053.1	327.52	585.06	573.37	125.31	609.07	567.94	259.55	534.13	559.7	497.94	559.13	541.29	373.51	491.2	129.59	105.81	494.61	126.9	184.34	467.95	96.621	484.75	505.88	116.21	391.18	549.46	830.9	131.27	613.34	822.05	118.16	610.11	746.41	123.47	547.45	756.57	136.82	547.88	807.89	503.94	614.34	801.08	512.82	600.92	727.45	508.22	533.55	733.9	497.41	586.7	519.32	127.92	630.44	529.55	138.52	627.16	479.27	140.25	577.48	465.61	128.99	435.66	408.74	488.56	500.3	415.4	517.04	504.19	341	513.67	440.37	332.25	487.76	426.72	54.304	105.12	418.16	77.686	142.22	428.28	44.377	171.81	409.1	40.414	452.58	405.59	66.447	416.42	426.5	39.342	387.51	655.58	48.125	186.22	633.41	48.084	82.486	706.36	57.865	160.93	654.92	49.688	428.29	605.71	32.982	530.33	689.93	54.906	485.16
1208	5.0313	557.24	1583.3	476.93	561.68	1605.7	175.29	682.45	1855.9	338.36	685.35	1530.2	331.9	537.24	1599.4	328.66	606.46	1132.6	150.02	619.82	1123	490.11	677.1	1055.7	177.76	681.76	1038.8	450.7	580.06	983.45	125.61	589.44	971.84	498.45	473.76	1076.4	272.61	485.04	1071.8	379.14	463.61	1053.1	327.53	585.04	573.37	125.31	609.05	567.94	259.55	534.1	559.7	497.94	559.1	541.28	373.52	491.19	129.58	105.81	494.6	126.89	184.34	467.94	96.612	484.76	505.87	116.21	391.18	549.42	830.89	131.27	613.3	822.05	118.17	610.08	746.41	123.47	547.41	756.56	136.82	547.85	807.89	503.94	614.31	801.08	512.83	600.89	727.45	508.22	533.52	733.89	497.42	586.68	519.31	127.92	630.42	529.55	138.52	627.14	479.27	140.25	577.46	465.61	129	435.63	408.74	488.57	500.28	415.39	517.05	504.16	341	513.68	440.35	332.25	487.8	426.72	54.299	105.12	418.15	77.681	142.22	428.28	44.372	171.81	409.1	40.397	452.59	405.58	66.435	416.42	426.49	39.332	387.51	655.58	48.126	186.22	633.41	48.085	82.486	706.36	57.868	160.93	654.91	49.698	428.3	605.7	32.984	530.33	689.92	54.92	485.16
1209	5.0354	557.2	1583.3	476.92	561.62	1605.7	175.28	682.37	1855.9	338.35	685.29	1530.2	331.89	537.18	1599.4	328.64	606.4	1132.6	150.02	619.78	1123	490.12	677.05	1055.7	177.75	681.72	1038.8	450.7	580.01	983.45	125.62	589.39	971.84	498.45	473.71	1076.4	272.62	484.99	1071.7	379.15	463.56	1053.1	327.54	585.02	573.37	125.32	609.02	567.94	259.56	534.07	559.69	497.94	559.06	541.28	373.52	491.19	129.57	105.81	494.59	126.89	184.34	467.93	96.603	484.77	505.86	116.21	391.18	549.38	830.89	131.28	613.25	822.05	118.17	610.04	746.41	123.47	547.37	756.56	136.83	547.82	807.88	503.94	614.28	801.08	512.83	600.86	727.45	508.22	533.49	733.88	497.42	586.66	519.31	127.93	630.39	529.55	138.53	627.12	479.27	140.25	577.43	465.6	129	435.61	408.74	488.58	500.26	415.39	517.06	504.14	341	513.7	440.32	332.24	487.83	426.72	54.293	105.12	418.15	77.675	142.22	428.27	44.366	171.81	409.1	40.38	452.59	405.58	66.424	416.43	426.48	39.322	387.52	655.57	48.126	186.22	633.41	48.086	82.487	706.35	57.871	160.93	654.91	49.708	428.3	605.7	32.985	530.33	689.92	54.935	485.16
1210	5.0396	557.15	1583.3	476.92	561.56	1605.7	175.27	682.29	1855.9	338.35	685.23	1530.2	331.88	537.13	1599.4	328.63	606.34	1132.6	150.03	619.74	1123	490.12	676.99	1055.7	177.75	681.68	1038.8	450.7	579.95	983.44	125.62	589.35	971.83	498.45	473.66	1076.4	272.63	484.94	1071.7	379.16	463.52	1053.1	327.55	584.99	573.37	125.32	608.99	567.93	259.56	534.04	559.69	497.95	559.03	541.27	373.52	491.18	129.57	105.81	494.59	126.88	184.34	467.92	96.593	484.78	505.85	116.2	391.19	549.33	830.88	131.28	613.21	822.04	118.17	610	746.4	123.47	547.33	756.56	136.83	547.79	807.88	503.94	614.24	801.08	512.83	600.83	727.45	508.22	533.46	733.87	497.43	586.63	519.31	127.93	630.37	529.55	138.53	627.1	479.27	140.26	577.41	465.6	129.01	435.59	408.73	488.58	500.24	415.39	517.07	504.11	341	513.71	440.3	332.24	487.87	426.73	54.286	105.12	418.15	77.67	142.22	428.27	44.36	171.81	409.09	40.362	452.6	405.57	66.412	416.44	426.48	39.312	387.52	655.57	48.127	186.22	633.41	48.086	82.488	706.35	57.874	160.93	654.9	49.719	428.3	605.69	32.987	530.33	689.91	54.951	485.16
